<svg id="Layer_1" xmlns="http://www.w3.org/2000/svg" viewBox="0 0 494.8 122.6"><style>.st0{fill:#3c3c3b}.st1{fill:#575756}.st2{fill:#e61471}.st3{fill:#c41460}.st4{fill:#3aaae1}.st5{fill:#3392c0}.st6{fill:#94c124}.st7{fill:#7fa520}.st8{fill:#f39200}.st9{fill:#ce7e00}.st10{fill:#89b02e}.st11{fill:none}</style><path class="st0" d="M213.9 58.8v25.1h-11.5V58.8c0-7-3.5-10.4-9.8-10.4-3.8 0-6.6 1.3-9 3.6.4 1.2.5 2.9.5 7v25h-11.5V58.8c0-6.9-3.1-10.4-9-10.4-4.1 0-7.3 1.3-9.7 3.6v32h-11.6V38.9h11.6v2.8c3.2-2.3 7.3-3.7 11.7-3.7 7 0 11.9 1.7 14.9 5.7 3.8-3.6 8.8-5.7 14.1-5.7 13.3 0 19.3 6.2 19.3 20.8M266.4 38.9V84h-11.5v-3.3c-3.7 2.5-8.2 4-13.2 4-14.1 0-22.4-11.4-22.4-23.3 0-12 8.3-23.3 22.4-23.3 4.7 0 9.4 1.5 13.2 3.7V39h11.5zm-11.5 13.4c-2.8-2.4-6.8-3.9-11.1-3.9-8.2 0-13.4 6.1-13.4 12.9 0 6.8 5.2 12.9 13.4 12.9 4.4 0 8.3-1.4 11.1-3.8V52.3zM326 71.7c5.6 2.4 9.8 3.7 15.4 3.7 5.3 0 7.4-2 7.4-4.3 0-2.6-2.6-3.7-9.5-5.2-9.7-2.2-16.8-5.3-16.8-14 0-8.1 6.7-13.8 17.2-13.8 7.1 0 12.7 1.7 17.6 3.7l-3.8 8.5c-4.4-1.7-9.5-2.9-14-2.9-4.4 0-6.6 1.6-6.6 4 0 2.5 2.7 3.7 10 5.1 10.5 2.2 16.5 5.8 16.5 14 0 8.5-6.6 14.2-18.1 14.2-7.8 0-12.9-1.1-19.5-4.3l4.2-8.7zM374.2 64.7c1.2 5.9 6 10 12.9 10 4.7 0 9.1-2.2 11.6-5.6l7.4 6.1c-4.1 5.6-11.5 9.3-20.3 9.3-13.6 0-23.1-10.4-23.1-23.2 0-12.9 9.5-23.3 23.1-23.3 13.9 0 21.9 10 21.9 24.1 0 .9-.1 1.8-.1 2.6h-33.4zm.1-7.4h22.3c-.4-5.1-3.2-10-10.9-10-6-.1-10.3 4.4-11.4 10M424.9 45.2c3.1-4.2 7.8-7.1 14.2-7.1.8 0 1.9.2 2.8.5v12.5s-3.2-.7-5.6-.7c-8.3 0-11.5 5.9-11.5 11.8v21.7h-11.6v-45h11.6v6.3zM494.8 39.1l-21.6 45h-5.4l-21.7-45h12.1l12.3 25.5 12.2-25.5zM318.9 45L303 60.8l15.8 15.8-8.3 8.4-15.8-15.8-15.9 15.9-8-8 15.9-15.9-15.8-15.8 8.3-8.4L295 52.8l15.9-15.9z"/><path transform="rotate(45.001 61.105 14.9)" class="st1" d="M55.3 9.4h11.5v11H55.3z"/><path transform="rotate(134.999 107.487 61.283)" class="st1" d="M102 55.8h11v11h-11z"/><path transform="rotate(-45.001 14.722 61.283)" class="st1" d="M9 55.5h11.5V67H9z"/><path transform="rotate(-134.999 61.104 107.665)" class="st1" d="M55.6 101.9h11v11.5h-11z"/><path class="st2" d="M84.1 15.6L107 38.4l-7.3 7.3 7.8 7.8 15.1-15.1L84.1 0l-15 15.1 7.7 7.8z"/><path transform="rotate(134.999 69.064 22.86)" class="st3" d="M63.6 17.4h11v11h-11z"/><path class="st4" d="M15.6 38.4l22.8-22.8 7 6.9 7.7-7.8L38.4 0 0 38.4l14.7 14.7 7.8-7.7z"/><path transform="rotate(45.001 22.683 53.324)" class="st5" d="M16.9 47.8h11.5v11H16.9z"/><path class="st6" d="M45.4 100.1l-7 6.9-22.8-22.9 6.9-6.9-7.8-7.8L0 84.1l38.4 38.5 14.7-14.8z"/><path transform="rotate(-45.001 53.322 99.884)" class="st7" d="M47.6 94.4h11.5v11H47.6z"/><path class="st8" d="M107 84.1L84.1 107l-7.3-7.3-7.7 7.8 15 15.1 38.5-38.5-15.1-15-7.8 7.7z"/><path transform="rotate(-134.999 99.705 69.065)" class="st9" d="M94.2 63.6h11v11h-11z"/><path class="st3" d="M99.7 45.7l-7.8 7.8v.1l-7.8 7.7 7.8 7.8 6.8-6.8 1-1 7.8-7.8z"/><path class="st9" d="M69 91.9l-7.7-7.7h-.1l-7.7 7.7 7.8 7.8.1-.1-.1.1 7.8 7.8 7.7-7.8z"/><path class="st7" d="M38.4 61.3l-7.8-7.8-.2.3-7.5 7.5-8.2 8.1 7.8 7.8 8.1-8.1z"/><path class="st10" d="M30.7 53.5"/><path class="st5" d="M69.1 30.6l-6.8-6.7-9.2-9.2-7.7 7.8 9.1 9.1 6.8 6.8z"/><path class="st11" d="M-56.6-88.7h612v300.3h-612z"/></svg>